# xmcd
#
# Track frame offsets:
#	150
#	20587
#	37492
#	56902
#	84412
#	103637
#	123547
#	146852
#	165837
#	177215
#	191387
#	204552
#	213797
#	233095
#	250680
#	274477
#	304732
#
# Disc length: 4390 seconds
#
# Revision: 1
# Processed by: cddbd v1.5.2PL0 Copyright (c) Steve Scherf et al.
# Submitted via: audiograbber 1.83.01
#
DISCID=f4112411
DTITLE=Ijmond Pop - Bewaren
DYEAR=1900
DGENRE=Pop
TTITLE0=Peter van Bemmel - Need to know
TTITLE1=Peter van Bemmel - The magic eye
TTITLE2=Peter van Bemmel - You are in my system
TTITLE3=Kitstone - Out of Control
TTITLE4=Kitstone - Hey You
TTITLE5=Kitstone - I always thought
TTITLE6=Checkin' Out - Funky Larry
TTITLE7=Undesireable Strangers - I know that
TTITLE8=Oeroeboeroe - Dust my broom
TTITLE9=Oeroeboeroe - Locomotive breath
TTITLE10=Oeroeboeroe - Jack Daniel's
TTITLE11=Maarten Kuiper - En ecoutant bruford
TTITLE12=Boogie Chillen - Cold shot
TTITLE13=Boogie Chillen - Someone's going mistreat you 
TTITLE14=Cees Brouwer - New York, New York
TTITLE15=Cees Brouwer - Willy and the Handjive/Whammer Jammer
TTITLE16=Arnold Schellens - Down by the river
EXTD=
EXTT0=
EXTT1=
EXTT2=
EXTT3=
EXTT4=
EXTT5=
EXTT6=
EXTT7=
EXTT8=
EXTT9=
EXTT10=
EXTT11=
EXTT12=
EXTT13=
EXTT14=
EXTT15=
EXTT16=
PLAYORDER=
